<svg xmlns="http://www.w3.org/2000/svg" x="0px" y="0px" width="100" height="100" viewBox="0,0,256,256">
<g fill="none" fill-rule="nonzero" stroke="none" stroke-width="1" stroke-linecap="butt" stroke-linejoin="miter" stroke-miterlimit="10" stroke-dasharray="" stroke-dashoffset="0" font-family="none" font-weight="none" font-size="none" text-anchor="none" style="mix-blend-mode: normal"><g transform="scale(5.33333,5.33333)"><path d="M35.76,26.36h0.01c0,0 -3.77,5.53 -6.94,9.64c-2.74,3.55 -3.54,6.59 -3.77,8.06c-0.09,0.54 -0.53,0.94 -1.06,0.94c-0.53,0 -0.97,-0.4 -1.06,-0.94c-0.23,-1.47 -1.03,-4.51 -3.77,-8.06c-0.42,-0.55 -0.85,-1.12 -1.28,-1.7l10.35,-12.3l8.33,-9.88c0.92,1.93 1.43,4.09 1.43,6.38c0,2.9 -0.83,5.59 -2.24,7.86z" fill="#48b564"></path><path d="M28.24,22l-10.35,12.3c-2.82,-3.78 -5.66,-7.94 -5.66,-7.94h0.01c-0.3,-0.48 -0.57,-0.97 -0.8,-1.48l8.32,-9.88c-0.79,0.95 -1.26,2.17 -1.26,3.5c0,3.04 2.46,5.5 5.5,5.5c1.71,0 3.24,-0.78 4.24,-2z" fill="#fcc60e"></path><path d="M28.4,4.74l-8.57,10.18l-6.56,-5.72c2.56,-3.18 6.42,-5.2 10.73,-5.2c1.54,0 3.02,0.26 4.4,0.74z" fill="#2c85eb"></path><path d="M19.83,14.92l-0.07,0.08l-8.32,9.88c-0.92,-1.93 -1.44,-4.09 -1.44,-6.38c0,-3.54 1.23,-6.79 3.27,-9.3z" fill="#ed5748"></path><path d="M28.24,22c0.79,-0.95 1.26,-2.17 1.26,-3.5c0,-3.04 -2.46,-5.5 -5.5,-5.5c-1.71,0 -3.24,0.78 -4.24,2l8.64,-10.26c3.59,1.22 6.53,3.91 8.17,7.38z" fill="#5695f6"></path></g></g>
</svg>